<?xml version="1.0" encoding="UTF-8" standalone="no"?>
<!DOCTYPE svg PUBLIC "-//W3C//DTD SVG 1.1//EN"
 "http://www.w3.org/Graphics/SVG/1.1/DTD/svg11.dtd">
<!-- Generated by graphviz version 2.40.1 (20161225.0304)
 -->
<!-- Title: dependencies Pages: 1 -->
<svg width="2703pt" height="284pt"
 viewBox="0.00 0.00 2703.00 284.00" xmlns="http://www.w3.org/2000/svg" xmlns:xlink="http://www.w3.org/1999/xlink">
<g id="graph0" class="graph" transform="scale(1 1) rotate(0) translate(4 280)">
<title>dependencies</title>
<polygon fill="#ffffff" stroke="transparent" points="-4,4 -4,-280 2699,-280 2699,4 -4,4"/>
<text text-anchor="start" x="1326.5091" y="-42.4" font-family="sans-serif" font-weight="bold" font-size="14.00" fill="#000000">Legend</text>
<polygon fill="#ffffb3" stroke="transparent" points="1113.5,-10 1113.5,-30 1133.5,-30 1133.5,-10 1113.5,-10"/>
<text text-anchor="start" x="1137.129" y="-15.4" font-family="sans-serif" font-size="14.00" fill="#000000"> &#160;Declarations</text>
<polygon fill="#8dd3c7" stroke="transparent" points="1226.5,-10 1226.5,-30 1246.5,-30 1246.5,-10 1226.5,-10"/>
<text text-anchor="start" x="1250.2251" y="-15.4" font-family="sans-serif" font-size="14.00" fill="#000000"> &#160;Module</text>
<polygon fill="#80b1d3" stroke="transparent" points="1312.5,-10 1312.5,-30 1332.5,-30 1332.5,-10 1312.5,-10"/>
<text text-anchor="start" x="1336.2812" y="-15.4" font-family="sans-serif" font-size="14.00" fill="#000000"> &#160;Bootstrap</text>
<polygon fill="#fdb462" stroke="transparent" points="1409.5,-10 1409.5,-30 1429.5,-30 1429.5,-10 1409.5,-10"/>
<text text-anchor="start" x="1433.1732" y="-15.4" font-family="sans-serif" font-size="14.00" fill="#000000"> &#160;Providers</text>
<polygon fill="#fb8072" stroke="transparent" points="1505.5,-10 1505.5,-30 1525.5,-30 1525.5,-10 1505.5,-10"/>
<text text-anchor="start" x="1529.2258" y="-15.4" font-family="sans-serif" font-size="14.00" fill="#000000"> &#160;Exports</text>
<g id="clust1" class="cluster">
<title>cluster_AppModule</title>
<polygon fill="none" stroke="#000000" stroke-dasharray="1,5" points="8,-70 8,-268 2687,-268 2687,-70 8,-70"/>
</g>
<g id="clust2" class="cluster">
<title>cluster_AppModule_declarations</title>
<polygon fill="none" stroke="#000000" points="980,-78 980,-130 2679,-130 2679,-78 980,-78"/>
</g>
<g id="clust16" class="cluster">
<title>cluster_AppModule_bootstrap</title>
<polygon fill="none" stroke="#000000" points="1319,-208 1319,-260 1443,-260 1443,-208 1319,-208"/>
</g>
<g id="clust17" class="cluster">
<title>cluster_AppModule_providers</title>
<polygon fill="none" stroke="#000000" points="16,-78 16,-130 972,-130 972,-78 16,-78"/>
</g>
<!-- ActionPipe -->
<g id="node1" class="node">
<title>ActionPipe</title>
<polygon fill="#ffffb3" stroke="#000000" points="2671.4902,-122 2592.5098,-122 2592.5098,-86 2671.4902,-86 2671.4902,-122"/>
<text text-anchor="middle" x="2632" y="-99.8" font-family="Times,serif" font-size="14.00" fill="#000000">ActionPipe</text>
</g>
<!-- AppModule -->
<g id="node12" class="node">
<title>AppModule</title>
<polygon fill="#8dd3c7" stroke="#000000" points="1422.6571,-187 1419.6571,-191 1398.6571,-191 1395.6571,-187 1339.3429,-187 1339.3429,-151 1422.6571,-151 1422.6571,-187"/>
<text text-anchor="middle" x="1381" y="-164.8" font-family="Times,serif" font-size="14.00" fill="#000000">AppModule</text>
</g>
<!-- ActionPipe&#45;&gt;AppModule -->
<g id="edge1" class="edge">
<title>ActionPipe&#45;&gt;AppModule</title>
<path fill="none" stroke="#000000" d="M2632,-122.3228C2632,-145.6602 2632,-183 2632,-183 2632,-183 1432.9807,-183 1432.9807,-183"/>
<polygon fill="#000000" stroke="#000000" points="1432.9808,-179.5001 1422.9807,-183 1432.9807,-186.5001 1432.9808,-179.5001"/>
</g>
<!-- AlertComponent -->
<g id="node2" class="node">
<title>AlertComponent</title>
<polygon fill="#ffffb3" stroke="#000000" points="2574.0954,-122 2463.9046,-122 2463.9046,-86 2574.0954,-86 2574.0954,-122"/>
<text text-anchor="middle" x="2519" y="-99.8" font-family="Times,serif" font-size="14.00" fill="#000000">AlertComponent</text>
</g>
<!-- AlertComponent&#45;&gt;AppModule -->
<g id="edge2" class="edge">
<title>AlertComponent&#45;&gt;AppModule</title>
<path fill="none" stroke="#000000" d="M2519,-122.1554C2519,-144.3519 2519,-179 2519,-179 2519,-179 1432.8517,-179 1432.8517,-179"/>
<polygon fill="#000000" stroke="#000000" points="1432.8517,-175.5001 1422.8517,-179 1432.8516,-182.5001 1432.8517,-175.5001"/>
</g>
<!-- AppComponent -->
<g id="node3" class="node">
<title>AppComponent</title>
<polygon fill="#ffffb3" stroke="#000000" points="2445.9399,-122 2340.0601,-122 2340.0601,-86 2445.9399,-86 2445.9399,-122"/>
<text text-anchor="middle" x="2393" y="-99.8" font-family="Times,serif" font-size="14.00" fill="#000000">AppComponent</text>
</g>
<!-- AppComponent&#45;&gt;AppModule -->
<g id="edge3" class="edge">
<title>AppComponent&#45;&gt;AppModule</title>
<path fill="none" stroke="#000000" d="M2393,-122.2843C2393,-143.3211 2393,-175 2393,-175 2393,-175 1432.8766,-175 1432.8766,-175"/>
<polygon fill="#000000" stroke="#000000" points="1432.8766,-171.5001 1422.8766,-175 1432.8765,-178.5001 1432.8766,-171.5001"/>
</g>
<!-- BeaconManagerPageComponent -->
<g id="node4" class="node">
<title>BeaconManagerPageComponent</title>
<polygon fill="#ffffb3" stroke="#000000" points="2322.2738,-122 2121.7262,-122 2121.7262,-86 2322.2738,-86 2322.2738,-122"/>
<text text-anchor="middle" x="2222" y="-99.8" font-family="Times,serif" font-size="14.00" fill="#000000">BeaconManagerPageComponent</text>
</g>
<!-- BeaconManagerPageComponent&#45;&gt;AppModule -->
<g id="edge4" class="edge">
<title>BeaconManagerPageComponent&#45;&gt;AppModule</title>
<path fill="none" stroke="#000000" d="M2222,-122.308C2222,-142.1455 2222,-171 2222,-171 2222,-171 1432.7053,-171 1432.7053,-171"/>
<polygon fill="#000000" stroke="#000000" points="1432.7054,-167.5001 1422.7053,-171 1432.7053,-174.5001 1432.7054,-167.5001"/>
</g>
<!-- LandingPageComponent -->
<g id="node5" class="node">
<title>LandingPageComponent</title>
<polygon fill="#ffffb3" stroke="#000000" points="2103.7021,-122 1948.2979,-122 1948.2979,-86 2103.7021,-86 2103.7021,-122"/>
<text text-anchor="middle" x="2026" y="-99.8" font-family="Times,serif" font-size="14.00" fill="#000000">LandingPageComponent</text>
</g>
<!-- LandingPageComponent&#45;&gt;AppModule -->
<g id="edge5" class="edge">
<title>LandingPageComponent&#45;&gt;AppModule</title>
<path fill="none" stroke="#000000" d="M2026,-122.2222C2026,-140.8285 2026,-167 2026,-167 2026,-167 1432.8233,-167 1432.8233,-167"/>
<polygon fill="#000000" stroke="#000000" points="1432.8233,-163.5001 1422.8233,-167 1432.8232,-170.5001 1432.8233,-163.5001"/>
</g>
<!-- LoginComponent -->
<g id="node6" class="node">
<title>LoginComponent</title>
<polygon fill="#ffffb3" stroke="#000000" points="1930.2758,-122 1815.7242,-122 1815.7242,-86 1930.2758,-86 1930.2758,-122"/>
<text text-anchor="middle" x="1873" y="-99.8" font-family="Times,serif" font-size="14.00" fill="#000000">LoginComponent</text>
</g>
<!-- LoginComponent&#45;&gt;AppModule -->
<g id="edge6" class="edge">
<title>LoginComponent&#45;&gt;AppModule</title>
<path fill="none" stroke="#000000" d="M1873,-122.0225C1873,-139.3734 1873,-163 1873,-163 1873,-163 1432.9476,-163 1432.9476,-163"/>
<polygon fill="#000000" stroke="#000000" points="1432.9477,-159.5001 1422.9476,-163 1432.9476,-166.5001 1432.9477,-159.5001"/>
</g>
<!-- LoginPageComponent -->
<g id="node7" class="node">
<title>LoginPageComponent</title>
<polygon fill="#ffffb3" stroke="#000000" points="1797.9874,-122 1656.0126,-122 1656.0126,-86 1797.9874,-86 1797.9874,-122"/>
<text text-anchor="middle" x="1727" y="-99.8" font-family="Times,serif" font-size="14.00" fill="#000000">LoginPageComponent</text>
</g>
<!-- LoginPageComponent&#45;&gt;AppModule -->
<g id="edge7" class="edge">
<title>LoginPageComponent&#45;&gt;AppModule</title>
<path fill="none" stroke="#000000" d="M1727,-122.0091C1727,-138.0494 1727,-159 1727,-159 1727,-159 1432.7357,-159 1432.7357,-159"/>
<polygon fill="#000000" stroke="#000000" points="1432.7357,-155.5001 1422.7357,-159 1432.7356,-162.5001 1432.7357,-155.5001"/>
</g>
<!-- PageNotFoundComponent -->
<g id="node8" class="node">
<title>PageNotFoundComponent</title>
<polygon fill="#ffffb3" stroke="#000000" points="1637.8243,-122 1472.1757,-122 1472.1757,-86 1637.8243,-86 1637.8243,-122"/>
<text text-anchor="middle" x="1555" y="-99.8" font-family="Times,serif" font-size="14.00" fill="#000000">PageNotFoundComponent</text>
</g>
<!-- PageNotFoundComponent&#45;&gt;AppModule -->
<g id="edge8" class="edge">
<title>PageNotFoundComponent&#45;&gt;AppModule</title>
<path fill="none" stroke="#000000" d="M1555,-122.1243C1555,-136.7832 1555,-155 1555,-155 1555,-155 1432.6773,-155 1432.6773,-155"/>
<polygon fill="#000000" stroke="#000000" points="1432.6774,-151.5001 1422.6773,-155 1432.6773,-158.5001 1432.6774,-151.5001"/>
</g>
<!-- ProfilePageComponent -->
<g id="node9" class="node">
<title>ProfilePageComponent</title>
<polygon fill="#ffffb3" stroke="#000000" points="1454.1442,-122 1307.8558,-122 1307.8558,-86 1454.1442,-86 1454.1442,-122"/>
<text text-anchor="middle" x="1381" y="-99.8" font-family="Times,serif" font-size="14.00" fill="#000000">ProfilePageComponent</text>
</g>
<!-- ProfilePageComponent&#45;&gt;AppModule -->
<g id="edge9" class="edge">
<title>ProfilePageComponent&#45;&gt;AppModule</title>
<path fill="none" stroke="#000000" d="M1381,-122.1061C1381,-122.1061 1381,-140.991 1381,-140.991"/>
<polygon fill="#000000" stroke="#000000" points="1377.5001,-140.9909 1381,-150.991 1384.5001,-140.991 1377.5001,-140.9909"/>
</g>
<!-- RegisterComponent -->
<g id="node10" class="node">
<title>RegisterComponent</title>
<polygon fill="#ffffb3" stroke="#000000" points="1289.9846,-122 1162.0154,-122 1162.0154,-86 1289.9846,-86 1289.9846,-122"/>
<text text-anchor="middle" x="1226" y="-99.8" font-family="Times,serif" font-size="14.00" fill="#000000">RegisterComponent</text>
</g>
<!-- RegisterComponent&#45;&gt;AppModule -->
<g id="edge10" class="edge">
<title>RegisterComponent&#45;&gt;AppModule</title>
<path fill="none" stroke="#000000" d="M1226,-122.1243C1226,-136.7832 1226,-155 1226,-155 1226,-155 1329.0548,-155 1329.0548,-155"/>
<polygon fill="#000000" stroke="#000000" points="1329.0548,-158.5001 1339.0548,-155 1329.0547,-151.5001 1329.0548,-158.5001"/>
</g>
<!-- RegisterPageComponent -->
<g id="node11" class="node">
<title>RegisterPageComponent</title>
<polygon fill="#ffffb3" stroke="#000000" points="1143.6965,-122 988.3035,-122 988.3035,-86 1143.6965,-86 1143.6965,-122"/>
<text text-anchor="middle" x="1066" y="-99.8" font-family="Times,serif" font-size="14.00" fill="#000000">RegisterPageComponent</text>
</g>
<!-- RegisterPageComponent&#45;&gt;AppModule -->
<g id="edge11" class="edge">
<title>RegisterPageComponent&#45;&gt;AppModule</title>
<path fill="none" stroke="#000000" d="M1066,-122.0091C1066,-138.0494 1066,-159 1066,-159 1066,-159 1329.1704,-159 1329.1704,-159"/>
<polygon fill="#000000" stroke="#000000" points="1329.1705,-162.5001 1339.1704,-159 1329.1704,-155.5001 1329.1705,-162.5001"/>
</g>
<!-- AppComponent  -->
<g id="node13" class="node">
<title>AppComponent </title>
<polygon fill="#80b1d3" stroke="#000000" points="1435.439,-252 1326.561,-252 1326.561,-216 1435.439,-216 1435.439,-252"/>
<text text-anchor="middle" x="1381" y="-229.8" font-family="Times,serif" font-size="14.00" fill="#000000">AppComponent </text>
</g>
<!-- AppModule&#45;&gt;AppComponent  -->
<g id="edge12" class="edge">
<title>AppModule&#45;&gt;AppComponent </title>
<path fill="none" stroke="#000000" stroke-dasharray="1,5" d="M1381,-187.1061C1381,-187.1061 1381,-205.991 1381,-205.991"/>
<polygon fill="#000000" stroke="#000000" points="1377.5001,-205.9909 1381,-215.991 1384.5001,-205.991 1377.5001,-205.9909"/>
</g>
<!-- AlertService -->
<g id="node14" class="node">
<title>AlertService</title>
<ellipse fill="#fdb462" stroke="#000000" cx="904" cy="-104" rx="59.6646" ry="18"/>
<text text-anchor="middle" x="904" y="-99.8" font-family="Times,serif" font-size="14.00" fill="#000000">AlertService</text>
</g>
<!-- AlertService&#45;&gt;AppModule -->
<g id="edge13" class="edge">
<title>AlertService&#45;&gt;AppModule</title>
<path fill="none" stroke="#000000" d="M904,-122.0225C904,-139.3734 904,-163 904,-163 904,-163 1329.0875,-163 1329.0875,-163"/>
<polygon fill="#000000" stroke="#000000" points="1329.0875,-166.5001 1339.0875,-163 1329.0875,-159.5001 1329.0875,-166.5001"/>
</g>
<!-- AuthenticationService -->
<g id="node15" class="node">
<title>AuthenticationService</title>
<ellipse fill="#fdb462" stroke="#000000" cx="729" cy="-104" rx="97.2683" ry="18"/>
<text text-anchor="middle" x="729" y="-99.8" font-family="Times,serif" font-size="14.00" fill="#000000">AuthenticationService</text>
</g>
<!-- AuthenticationService&#45;&gt;AppModule -->
<g id="edge14" class="edge">
<title>AuthenticationService&#45;&gt;AppModule</title>
<path fill="none" stroke="#000000" d="M729,-122.2222C729,-140.8285 729,-167 729,-167 729,-167 1329.2226,-167 1329.2226,-167"/>
<polygon fill="#000000" stroke="#000000" points="1329.2227,-170.5001 1339.2226,-167 1329.2226,-163.5001 1329.2227,-170.5001"/>
</g>
<!-- BeaconService -->
<g id="node16" class="node">
<title>BeaconService</title>
<ellipse fill="#fdb462" stroke="#000000" cx="545" cy="-104" rx="68.8984" ry="18"/>
<text text-anchor="middle" x="545" y="-99.8" font-family="Times,serif" font-size="14.00" fill="#000000">BeaconService</text>
</g>
<!-- BeaconService&#45;&gt;AppModule -->
<g id="edge15" class="edge">
<title>BeaconService&#45;&gt;AppModule</title>
<path fill="none" stroke="#000000" d="M545,-122.308C545,-142.1455 545,-171 545,-171 545,-171 1329.2566,-171 1329.2566,-171"/>
<polygon fill="#000000" stroke="#000000" points="1329.2566,-174.5001 1339.2566,-171 1329.2566,-167.5001 1329.2566,-174.5001"/>
</g>
<!-- ErrorInterceptor -->
<g id="node17" class="node">
<title>ErrorInterceptor</title>
<ellipse fill="#fdb462" stroke="#000000" cx="384" cy="-104" rx="73.5329" ry="18"/>
<text text-anchor="middle" x="384" y="-99.8" font-family="Times,serif" font-size="14.00" fill="#000000">ErrorInterceptor</text>
</g>
<!-- ErrorInterceptor&#45;&gt;AppModule -->
<g id="edge16" class="edge">
<title>ErrorInterceptor&#45;&gt;AppModule</title>
<path fill="none" stroke="#000000" d="M384,-122.2843C384,-143.3211 384,-175 384,-175 384,-175 1329.1138,-175 1329.1138,-175"/>
<polygon fill="#000000" stroke="#000000" points="1329.1138,-178.5001 1339.1138,-175 1329.1137,-171.5001 1329.1138,-178.5001"/>
</g>
<!-- JwtInterceptor -->
<g id="node18" class="node">
<title>JwtInterceptor</title>
<ellipse fill="#fdb462" stroke="#000000" cx="225" cy="-104" rx="66.6094" ry="18"/>
<text text-anchor="middle" x="225" y="-99.8" font-family="Times,serif" font-size="14.00" fill="#000000">JwtInterceptor</text>
</g>
<!-- JwtInterceptor&#45;&gt;AppModule -->
<g id="edge17" class="edge">
<title>JwtInterceptor&#45;&gt;AppModule</title>
<path fill="none" stroke="#000000" d="M225,-122.1554C225,-144.3519 225,-179 225,-179 225,-179 1329.1744,-179 1329.1744,-179"/>
<polygon fill="#000000" stroke="#000000" points="1329.1744,-182.5001 1339.1744,-179 1329.1744,-175.5001 1329.1744,-182.5001"/>
</g>
<!-- UserService -->
<g id="node19" class="node">
<title>UserService</title>
<ellipse fill="#fdb462" stroke="#000000" cx="82" cy="-104" rx="58.4415" ry="18"/>
<text text-anchor="middle" x="82" y="-99.8" font-family="Times,serif" font-size="14.00" fill="#000000">UserService</text>
</g>
<!-- UserService&#45;&gt;AppModule -->
<g id="edge18" class="edge">
<title>UserService&#45;&gt;AppModule</title>
<path fill="none" stroke="#000000" d="M82,-122.3228C82,-145.6602 82,-183 82,-183 82,-183 1329.2512,-183 1329.2512,-183"/>
<polygon fill="#000000" stroke="#000000" points="1329.2512,-186.5001 1339.2512,-183 1329.2511,-179.5001 1329.2512,-186.5001"/>
</g>
</g>
</svg>
