<svg xmlns="http://www.w3.org/2000/svg" viewBox="0 0 737.11 737.17"><defs><style>.cls-1,.cls-10,.cls-11{fill:none;}.cls-1,.cls-10,.cls-11,.cls-2,.cls-3,.cls-4,.cls-7,.cls-8{stroke:#000;}.cls-1,.cls-10,.cls-11,.cls-2,.cls-3,.cls-4,.cls-6,.cls-7,.cls-8{stroke-miterlimit:10;}.cls-1{stroke-width:38px;}.cls-2{fill:#1f1f1f;}.cls-11,.cls-2,.cls-4,.cls-7{stroke-width:10px;}.cls-3,.cls-4{fill:#fffde6;}.cls-10,.cls-3,.cls-8{stroke-width:7px;}.cls-5{fill:#2e3192;}.cls-6{fill:#fff;stroke:#fff;}.cls-7{fill:#f7931e;}.cls-8,.cls-9{fill:#fbbb3b;}</style></defs><title>beac-icon-iter3</title><g id="Cutoff"><path class="cls-1" d="M530.56,418.16c0,86.14-80.48,134.41-152.74,110" transform="translate(-31.22 -43.79)"/><path class="cls-1" d="M749.33,418.16c0,244.19-198.5,399.5-448,325.06" transform="translate(-31.22 -43.79)"/><path class="cls-1" d="M647.84,418.16c0,153.89-153.51,271.07-307,222.77" transform="translate(-31.22 -43.79)"/></g><g id="Body_1" data-name="Body 1"><path class="cls-2" d="M246.41,81.58l46.15,89.81c-22.34,15.73-31.87,43.82-23.81,68.49,9.08,27.79,38.64,45.57,69.27,40.26l54.44,117.23L272,739c-8.18-3.13-199.4-80-231.42-275C15.66,312,98.44,154.91,246.41,81.58Z" transform="translate(-31.22 -43.79)"/></g><g id="Body_2" data-name="Body 2"><path class="cls-3" d="M276,254.48c-56,43.12-83.53,113.78-71.22,182.85,11.84,66.39,58.79,121.61,122.69,144.5q32.52-92.24,65-184.46L338,280.14A62.5,62.5,0,0,1,276,254.48Z" transform="translate(-31.22 -43.79)"/><path class="cls-4" d="M327.43,581.83q32.52-92.24,65-184.46L338,280.14A62.5,62.5,0,0,1,276,254.48" transform="translate(-31.22 -43.79)"/></g><g id="Eye"><circle class="cls-5" cx="324.9" cy="222.04" r="38.99" transform="translate(-23.72 410.89) rotate(-70.59)"/><circle class="cls-6" cx="287.14" cy="163.65" r="13.33"/></g><g id="Beak_1" data-name="Beak 1"><path class="cls-7" d="M760.81,388.58a338,338,0,0,0-23.1-120.42s-26.52-67.74-81.4-121.24c-98.4-95.93-250.42-124.17-389.4-73Q289.47,119,312,164.07a59.36,59.36,0,0,1,44.68,107.54Q383.84,328,411,384.4l174.92,2.09Z" transform="translate(-31.22 -43.79)"/></g><g id="Beak_2" data-name="Beak 2"><path class="cls-8" d="M754.61,388.58c-77.11-52.14-144.34-79.5-188.77-94.26-52.41-17.42-86.06-21.6-105.39-23.24-31.44-2.65-64.21-1.33-101.73,4.48l51,111,172.44,1Z" transform="translate(-31.22 -43.79)"/><path class="cls-8" d="M754.61,388.58c-77.11-52.14-144.34-79.5-188.77-94.26-52.41-17.42-86.06-21.6-105.39-23.24-31.44-2.65-64.21-1.33-101.73,4.48l51,111,172.44,1Z" transform="translate(-31.22 -43.79)"/><path class="cls-9" d="M754.61,388.58a415.1,415.1,0,0,0-395.89-113l51,111,172.44,1Z" transform="translate(-31.22 -43.79)"/><path class="cls-10" d="M358.72,275.56a417.57,417.57,0,0,1,197.22-.2C661.17,301,727.59,361.09,754.61,388.58" transform="translate(-31.22 -43.79)"/><path class="cls-11" d="M356.72,271.61Q383.84,328,411,384.4l349.84,4.18" transform="translate(-31.22 -43.79)"/></g></svg>